<?xml version="1.0" encoding="UTF-8" standalone="no"?>
<svg version="1.1" xmlns="http://www.w3.org/2000/svg" xmlns:xlink="http://www.w3.org/1999/xlink" viewBox="0 0 210 40">
  <path id="outline" fill="#fff" d="M 51.603516,1.9707031 C 50.968666,1.9461782 50.438992,2.1512207 49.970703,2.4121094 49.605896,2.2343439 49.267763,2.0143017 48.802734,1.9960938 h -0.002 c -1.406061,-0.054232 -2.434632,0.8261051 -2.947265,1.6035156 -0.212918,0.3228908 -0.198712,0.6955031 -0.31836,1.0371094 -0.884713,0.268519 -1.621638,0.7720795 -2,1.3457031 -0.512391,0.7768213 -0.732362,1.6081857 -0.767578,2.4960937 -0.03485,0.8891905 0.119538,1.7352684 0.570313,2.5507814 0.141263,0.255564 0.41905,0.500635 0.658203,0.751953 -0.0742,0.261589 -0.137817,0.539886 -0.16211,0.837891 -0.839758,-0.122357 -1.70487,-0.185547 -2.591796,-0.185547 -2.386022,0 -4.655145,0.491718 -6.695313,1.49414 -2.052277,0.995092 -3.764915,2.535133 -4.982422,4.476563 -0.002,0.0033 -0.0039,0.0065 -0.0059,0.0098 -1.178647,1.898931 -1.761006,4.126068 -1.806641,6.5 l -3.404297,-4.666015 7.623047,-7.128906 C 33.119189,12.044881 33.002527,10.18957 31.728428,9.2676131 L 26.089844,5.1875 C 25.126835,4.4907869 23.806441,4.5683611 22.931641,5.3730469 L 16.203125,11.558594 V 7.8125 c -1.38e-4,-1.3806547 -1.119345,-2.499862 -2.5,-2.5 H 6.4238281 c -1.3806547,1.38e-4 -2.499862,1.1193453 -2.5,2.5 v 27.201172 c 1.38e-4,1.380655 1.1193453,2.499862 2.5,2.5 h 7.2792969 c 1.380655,-1.38e-4 2.499862,-1.119345 2.5,-2.5 v -5.183594 l 4.517578,6.595703 c 0.465954,0.680651 1.237637,1.087684 2.0625,1.087891 h 9.240235 c 0.825265,-0.0022 1.596299,-0.411443 2.060546,-1.09375 2.053819,1.03157 4.432965,1.533203 6.998047,1.533203 2.408836,0 4.678692,-0.448434 6.716797,-1.384766 2.099616,-0.952286 3.852573,-2.452102 5.066406,-4.367187 0.524042,-0.809765 0.928066,-1.686431 1.230469,-2.609375 0.236705,1.384791 0.74121,2.690649 1.537109,3.820312 0.01214,0.01774 0.02451,0.03532 0.03711,0.05273 1.118624,1.503151 2.637102,2.667455 4.392578,3.410156 1.704439,0.721109 3.547571,1.078125 5.453125,1.078125 1.225293,0 2.467736,-0.231555 3.732422,-0.642578 0.01175,-0.0038 0.02347,-0.0077 0.03516,-0.01172 1.103511,-0.376809 2.036452,-0.776616 2.863281,-1.386719 1.763214,1.428782 4.10427,2.041016 6.654297,2.041016 1.556435,0 2.957028,-0.672679 4.238281,-1.587891 l 0.46875,0.449219 c 0.465433,0.448169 1.086293,0.698753 1.732422,0.699219 h 3.519532 c 1.096328,-0.0036 2.062405,-0.721062 2.382812,-1.769531 1.244624,0.661987 2.690694,1.163016 4.369141,1.576171 0.0033,6.58e-4 0.0065,0.0013 0.0098,0.002 1.908909,0.462765 3.682754,0.710937 5.347657,0.710937 2.44792,0 4.6968,-0.388672 6.69336,-1.238281 1.97891,-0.83102 3.65934,-2.048952 4.84375,-3.664063 0.0736,-0.100378 0.13973,-0.205569 0.20898,-0.308593 1.21233,1.626474 2.83295,2.907315 4.73047,3.753906 0.005,0.002 0.009,0.0039 0.0137,0.0059 2.12185,0.932335 4.49394,1.371094 7.04492,1.371094 1.78389,0 3.54002,-0.229442 5.24414,-0.685547 h 0.004 c 0.95209,-0.251087 1.81429,-0.538659 2.59961,-0.894531 0.45737,0.705882 1.239,1.134497 2.08008,1.140625 h 7.28125 c 1.38065,-1.38e-4 2.49986,-1.119345 2.5,-2.5 v -9.929688 c 0.41212,-0.229282 0.75276,-0.484881 1.2832,-0.669922 0.94181,-0.328534 1.72316,-0.460937 2.33594,-0.460937 0.0862,-7.63e-4 0.1722,-0.006 0.25781,-0.01563 l 4.63282,11.976562 c 0.37217,0.963822 1.29885,1.599456 2.33203,1.59961 h 6.88086 c 1.02643,-8.57e-4 1.94806,-0.628961 2.32422,-1.583984 l 2.57812,-6.546876 c 0.30606,0.997065 0.72743,1.943242 1.2832,2.814454 0.003,0.0059 0.006,0.01173 0.01,0.01758 1.24526,1.918379 3.02949,3.411593 5.1582,4.361328 0.005,0.002 0.009,0.0039 0.0137,0.0059 2.12188,0.932335 4.49395,1.371094 7.04493,1.371094 1.78389,0 3.54002,-0.229442 5.24414,-0.685547 h 0.004 c 0.95239,-0.251166 1.81409,-0.540457 2.59961,-0.896484 0.45729,0.707202 1.23988,1.136674 2.08203,1.142578 h 7.2793 c 1.38065,-1.38e-4 2.49986,-1.119345 2.5,-2.5 v -9.929688 c 0.41232,-0.229465 0.7524,-0.484755 1.2832,-0.669922 0.94181,-0.328534 1.72316,-0.460937 2.33594,-0.460937 1.63041,2.57e-4 2.82486,-1.534916 2.42383,-3.115234 l -1.48047,-5.839844 c -0.28143,-1.108075 -1.27861,-1.884108 -2.42187,-1.884766 -1.40807,0 -2.8247,0.328318 -4.25,0.898438 -0.56108,0.224429 -1.01315,0.545629 -1.53321,0.80664 l -0.49414,-0.660156 c -0.47176,-0.632791 -1.21461,-1.005668 -2.0039,-1.005859 h -3.63868 c -1.38065,1.38e-4 -2.49986,1.119345 -2.5,2.5 v 0.384765 c -0.62985,-0.695836 -1.34493,-1.31568 -2.14062,-1.835937 -1.84743,-1.207936 -4.06949,-1.767578 -6.44727,-1.767578 -2.33154,0 -4.55606,0.520059 -6.53125,1.572265 -0.29215,0.153823 -0.5734,0.323288 -0.84961,0.5 -0.42028,-0.850496 -1.2857,-1.389872 -2.23437,-1.392578 h -7.24023 c -1.07066,-2.4e-5 -2.0225,0.681658 -2.36719,1.695313 l -1.32617,3.912109 -1.53321,-4.615234 c -0.42177,-1.27229 -1.7718,-1.985645 -3.06054,-1.617188 l -5.71485,1.634766 c -0.46557,-0.627154 -1.19749,-1.000698 -1.97851,-1.009766 -0.0961,0 -0.19287,0.0048 -0.28907,0.0078 0.0353,-0.36831 0.0228,-0.726831 -0.0176,-1.054688 0.29038,-0.248641 0.60408,-0.49562 0.77929,-0.761718 0.51208,-0.777723 0.7313,-1.6091263 0.76563,-2.4980474 0.0345,-0.8882694 -0.12015,-1.7320962 -0.57031,-2.546875 -0.34078,-0.6168009 -1.057,-1.1960572 -1.95313,-1.5234375 -0.091,-0.3092884 -0.0449,-0.6390389 -0.21094,-0.9394531 -0.45055,-0.8151127 -1.40836,-1.7710297 -2.81445,-1.8261719 h -0.002 c -0.63485,-0.024525 -1.16453,0.1805176 -1.63282,0.4414063 -0.3648,-0.1777655 -0.70294,-0.3978077 -1.16797,-0.4160156 h -0.002 c -1.40606,-0.054232 -2.43463,0.8261051 -2.94726,1.6035156 -0.21292,0.3228908 -0.19872,0.6955031 -0.31836,1.0371094 -0.88472,0.268519 -1.62164,0.7720795 -2,1.3457031 -0.51239,0.7768213 -0.73237,1.6081857 -0.76758,2.4960937 -0.0349,0.8891905 0.11954,1.7352684 0.57031,2.5507814 0.14126,0.255564 0.41905,0.500635 0.6582,0.751953 -0.11823,0.416829 -0.21338,0.872338 -0.15625,1.390625 -1.31256,0.08127 -2.33781,1.165422 -2.3457,2.480469 v 0.382812 c -0.62936,-0.694713 -1.34379,-1.314253 -2.13867,-1.833984 -1.84743,-1.207936 -4.07144,-1.767578 -6.44922,-1.767578 -2.33154,0 -4.55411,0.520059 -6.5293,1.572265 -1.97243,1.038494 -3.59401,2.610234 -4.71679,4.558594 -0.3703,0.642576 -0.67112,1.321897 -0.91797,2.025391 -0.59491,-0.615354 -1.24414,-1.178389 -1.94727,-1.681641 -1.17043,-0.862505 -2.59181,-1.760132 -4.22461,-2.701172 0.59002,0.157557 1.12902,0.290944 2.07813,0.613281 1.22877,0.417305 2.57256,-0.174842 3.09375,-1.363281 l 2.1582,-4.919922 c 0.48706,-1.1107829 0.10665,-2.410927 -0.90234,-3.083984 -1.30341,-0.8689355 -2.80592,-1.5119538 -4.47656,-1.96875 -10e-4,-3.552e-4 -0.003,3.55e-4 -0.004,0 -1.63812,-0.4546884 -3.28047,-0.6914063 -4.90625,-0.6914062 -2.30079,0 -4.429933,0.3801096 -6.324221,1.2109374 -1.867693,0.819164 -3.458903,2.0474933 -4.591797,3.640625 -0.0026,0.0026 -0.0052,0.0052 -0.0078,0.00781 -1.114278,1.5815548 -1.695313,3.4867648 -1.695313,5.4414058 0,0.492067 0.04167,0.981546 0.119141,1.462891 -0.287332,-0.423757 -0.610163,-0.824887 -0.96875,-1.197266 -1.92541,-1.999464 -4.709185,-2.925781 -7.759766,-2.925781 -1.697133,0 -3.412372,0.212746 -5.132812,0.626953 -1.663126,0.374293 -3.147764,0.842376 -4.458985,1.435547 -0.156831,0.0799 -0.304787,0.176136 -0.441406,0.287109 -0.473625,-0.551381 -1.163756,-0.869354 -1.890625,-0.871094 H 66.216797 V 10.173828 C 66.217831,8.6565119 64.878092,7.4880389 63.375,7.6953125 L 57.158203,8.5488281 C 57.155132,7.7549876 56.990196,6.9949919 56.583984,6.2597656 56.243395,5.6433128 55.526183,5.0658949 54.630859,4.7382812 54.539841,4.4283616 54.586304,4.0978839 54.419922,3.796875 53.969369,2.9817623 53.011561,2.0258453 51.605469,1.9707031 Z M 91.001953,20.355469 c 0.941458,1.316103 2.044676,2.443442 3.300781,3.335937 0.01165,0.0086 0.02336,0.01703 0.03516,0.02539 1.093786,0.74838 2.542813,1.646968 4.384765,2.730469 0.0039,0.0026 0.0078,0.0052 0.01172,0.0078 l 0.732422,0.425781 c -0.477634,-0.06693 -0.859783,-0.07115 -1.46875,-0.234375 -1.110825,-0.33313 -1.929974,-0.680797 -2.373047,-0.943359 -1.2914,-0.76541 -2.961419,-0.228259 -3.564453,1.146484 l -0.800781,1.828125 v -5.664062 c 0,-0.914301 -0.08567,-1.805239 -0.257813,-2.658203 z"/>
  <g id="text" fill="#374151">
    <path d="m22.784 35.013-6.96-10.16-2.12 2v8.16h-7.28v-27.2h7.28v9.44l10.92-10.04 5.64 4.08-9.24 8.64 11 15.08h-9.24z"/>
    <path d="m52.243 25.413q0 3.16-1.48 5.44-1.44 2.28-4 3.44-2.52 1.16-5.68 1.16-4.88 0-7.88-2.6-2.96-2.64-2.96-7.64 0-3.16 1.44-5.48 1.48-2.36 3.96-3.56 2.52-1.24 5.6-1.24 3.24 0 5.72 1.2t3.88 3.56 1.4 5.72zm-11.08 4.12q1.72 0 2.64-1.04t0.92-3.08q0-2-0.92-3.28-0.88-1.28-2.48-1.28-1.68 0-2.64 1.16-0.92 1.16-0.92 3.2 0 2 0.88 3.16t2.52 1.16z"/>
    <path d="m63.716 16.413v-6.24l-7.28 1v5.24h-3v5.72h3v5.6q0 2.48 1.24 4.24 1.28 1.72 3.36 2.6t4.48 0.88q1.36 0 2.96-0.52 1.64-0.56 2.4-1.2l-2.08-4.96q-1.36 0.76-2.8 0.76-1.04 0-1.68-0.68-0.6-0.72-0.6-1.92v-4.8h5.76l-0.68-5.72h-5.08z"/>
    <path d="m74.08 22.013q1.12-0.48 2.48-0.8 1.4-0.36 2.36-0.36 1.04 0 1.68 0.56 0.68 0.56 0.84 1.68h-2.32q-7.6 0-7.6 5.68 0 3.08 1.84 4.88t5.44 1.8q2.44 0 4.36-2.44l2.08 2h3.52v-12q0-3.76-2.08-5.92t-5.96-2.16q-2.24 0-4.56 0.56-2.32 0.52-4 1.28l1.92 5.24zm3.52 6.64q0-0.68 0.44-1.12 0.48-0.44 1.2-0.44h2.24v1.84q-1.32 1.08-2.56 1.08-0.56 0-0.96-0.36-0.36-0.4-0.36-1z"/>
    <path d="m91.95 33.333q1.56 0.92 4.16 1.56 2.64 0.64 4.76 0.64 3.28 0 5.72-1.04 2.48-1.04 3.8-2.84t1.32-4.12q0-2.08-1.2-3.72-1.16-1.68-2.84-2.88-1.68-1.24-4.2-2.68l-1.44-0.8q-1.44-0.76-2.08-1.2-0.6-0.48-0.6-1.08 0-0.8 0.72-1.36 0.76-0.56 1.96-0.56 1.36 0 2.48 0.24 1.16 0.24 3.28 0.96l2.16-4.92q-1.56-1.04-3.76-1.64-2.16-0.6-4.24-0.6-3.04 0-5.32 1t-3.56 2.8q-1.24 1.76-1.24 4 0 2.12 1.2 3.8t2.72 2.76q1.52 1.04 4.24 2.64l1.24 0.72q1.56 0.92 2.24 1.44 0.72 0.48 0.72 1 0 0.8-0.96 1.48-0.96 0.64-2.56 0.64-1.44 0-3.36-0.52-1.88-0.56-2.96-1.2l-2.4 5.48z"/>
    <path d="m132.525 25.013q0-2.8-1.08-5.08-1.04-2.28-3.12-3.64t-5.08-1.36q-2.96 0-5.36 1.28-2.36 1.24-3.72 3.6t-1.36 5.52q0 3.2 1.48 5.52 1.48 2.28 4.08 3.44 2.64 1.16 6.04 1.16 2.36 0 4.6-0.6 2.28-0.6 3.48-1.48l-2.04-4.92q-2.56 1.32-5.32 1.32-1.8 0-2.92-0.68-1.08-0.72-1.48-1.96h11.8v-2.12zm-12-1.48q-0.04-1.08 0.72-1.92 0.8-0.84 1.8-0.84 1.24 0 1.88 0.88t0.64 1.88h-5.04z"/>
    <path d="m141.613 23.613q1.24-0.96 2.96-1.56t3.16-0.6l-1.48-5.84q-1.52 0-3.32 0.72t-3.2 1.68l-1.76-2.36h-3.64v19.36h7.28v-11.4z"/>
    <path d="m161.835 35.013 7.64-19.4h-7.24l-3.72 10.96-3.88-11.68-6.72 1.92 7.04 18.2h6.88z"/>
    <path d="m188.369 25.013q0-2.8-1.08-5.08-1.04-2.28-3.12-3.64t-5.08-1.36q-2.96 0-5.36 1.28-2.36 1.24-3.72 3.6t-1.36 5.52q0 3.2 1.48 5.52 1.48 2.28 4.08 3.44 2.64 1.16 6.04 1.16 2.36 0 4.6-0.6 2.28-0.6 3.48-1.48l-2.04-4.92q-2.56 1.32-5.32 1.32-1.8 0-2.92-0.68-1.08-0.72-1.48-1.96h11.8v-2.12zm-12-1.48q-0.04-1.08 0.72-1.92 0.8-0.84 1.8-0.84 1.24 0 1.88 0.88t0.64 1.88h-5.04z"/>
    <path d="m197.457 23.613q1.24-0.96 2.96-1.56t3.16-0.6l-1.48-5.84q-1.52 0-3.32 0.72t-3.2 1.68l-1.76-2.36h-3.64v19.36h7.28v-11.4z"/>
  </g>
  <path id="paw" fill="#fd8c29" d="m47.371 8.66a1.05359 1.74199 2.2419 0 1 -1.12 1.699 1.05359 1.74199 2.2419 0 1 -0.985 -1.782 1.05359 1.74199 2.2419 0 1 1.12 -1.698 1.05359 1.74199 2.2419 0 1 0.985 1.781zm7.285 0.05a1.05359 1.74199 2.2419 0 1 -1.12 1.701 1.05359 1.74199 2.2419 0 1 -0.987 -1.783 1.05359 1.74199 2.2419 0 1 1.123 -1.699 1.05359 1.74199 2.2419 0 1 0.984 1.781zm-2.163-2.46a1.05359 1.74199 2.2419 0 1 -1.123 1.699 1.05359 1.74199 2.2419 0 1 -0.983 -1.782 1.05359 1.74199 2.2419 0 1 1.121 -1.699 1.05359 1.74199 2.2419 0 1 0.985 1.782zm-6.042 6.963c-0.635-1.097 1.783-4.61 3.486-4.543 1.7 0.06 4.075 3.547 2.973 4.795-0.773 0.88-1.943-0.175-3.152-0.222-1.21-0.04-2.518 1.332-3.307-0.03zm3.239-6.935a1.05359 1.74199 2.2419 0 1 -1.121 1.698 1.05359 1.74199 2.2419 0 1 -0.985 -1.781 1.05359 1.74199 2.2419 0 1 1.121 -1.7 1.05359 1.74199 2.2419 0 1 0.985 1.783z"/>
  <use xlink:href="#paw" transform="translate(90.338,0)"/>
</svg>
